<svg width="52" height="52" viewBox="0 0 52 52" fill="none" xmlns="http://www.w3.org/2000/svg">
<path d="M32.434 2.88664C32.4708 2.74897 32.5344 2.61989 32.6211 2.50678C32.7078 2.39367 32.8159 2.29874 32.9393 2.22742C33.0627 2.1561 33.1989 2.10978 33.3402 2.09111C33.4814 2.07243 33.625 2.08177 33.7627 2.11859C37.6261 3.15752 41.1488 5.19341 43.9777 8.02233C46.8066 10.8513 48.8425 14.3739 49.8814 18.2373C49.9182 18.375 49.9276 18.5186 49.9089 18.6598C49.8902 18.8011 49.8439 18.9373 49.7726 19.0607C49.7012 19.1841 49.6063 19.2922 49.4932 19.3789C49.3801 19.4656 49.251 19.5292 49.1134 19.566C48.9757 19.6028 48.8321 19.6121 48.6908 19.5934C48.5496 19.5748 48.4133 19.5284 48.29 19.4571C48.1666 19.3858 48.0585 19.2909 47.9718 19.1778C47.8851 19.0647 47.8215 18.9356 47.7847 18.7979C46.8449 15.3026 45.003 12.1157 42.4437 9.55634C39.8843 6.99701 36.6974 5.15515 33.2021 4.2153C32.924 4.14095 32.6869 3.9592 32.5429 3.71003C32.3989 3.46086 32.3597 3.16468 32.434 2.88664ZM30.9546 12.6029C32.9782 13.1471 34.8232 14.2134 36.3049 15.6951C37.7866 17.1768 38.8529 19.0218 39.3971 21.0454C39.4339 21.183 39.4975 21.3121 39.5842 21.4252C39.6709 21.5383 39.779 21.6333 39.9024 21.7046C40.0257 21.7759 40.1619 21.8222 40.3032 21.8409C40.4445 21.8596 40.5881 21.8502 40.7257 21.8134C40.8634 21.7766 40.9925 21.713 41.1056 21.6264C41.2187 21.5397 41.3136 21.4315 41.3849 21.3082C41.4563 21.1848 41.5026 21.0486 41.5213 20.9073C41.5399 20.766 41.5306 20.6224 41.4938 20.4848C40.8506 18.093 39.5903 15.9123 37.839 14.161C36.0877 12.4097 33.907 11.1494 31.5152 10.5062C31.3776 10.4694 31.234 10.4601 31.0927 10.4787C30.9514 10.4974 30.8152 10.5437 30.6918 10.6151C30.5685 10.6864 30.4603 10.7813 30.3736 10.8944C30.2869 11.0075 30.2234 11.1366 30.1866 11.2743C30.1498 11.4119 30.1404 11.5555 30.1591 11.6968C30.1778 11.8381 30.2241 11.9743 30.2954 12.0977C30.3667 12.221 30.4617 12.3292 30.5748 12.4158C30.6879 12.5025 30.817 12.5661 30.9546 12.6029H30.9546ZM51.9768 39.6773C51.539 43.0809 49.877 46.2086 47.3015 48.4763C44.7259 50.7441 41.4129 51.9966 37.9813 52C17.0383 52 0 34.9617 0 14.0187C0.00338118 10.5872 1.25588 7.27416 3.52355 4.69861C5.79121 2.12306 8.91893 0.461108 12.3225 0.0232094C13.0216 -0.0606516 13.7292 0.0840776 14.3392 0.435752C14.9493 0.787427 15.4292 1.32715 15.707 1.9742L21.1575 14.6917C21.3696 15.1851 21.456 15.7233 21.4091 16.2583C21.3623 16.7932 21.1835 17.3083 20.8889 17.7572L16.3757 24.6533C16.2735 24.8063 16.2125 24.9831 16.1987 25.1666C16.1848 25.35 16.2186 25.534 16.2968 25.7006H16.297C18.4448 30.082 21.9973 33.6185 26.3885 35.7464C26.556 35.8241 26.7409 35.857 26.925 35.8418C27.109 35.8267 27.286 35.7641 27.4387 35.6601L34.2306 31.131C34.6808 30.8297 35.1992 30.6459 35.7387 30.5964C36.2781 30.5468 36.8214 30.633 37.3189 30.8472L50.0258 36.293C50.6728 36.5708 51.2125 37.0506 51.5642 37.6606C51.9159 38.2707 52.0606 38.9781 51.9768 39.6773ZM49.1706 38.2879L36.4642 32.8422C36.2983 32.7708 36.1172 32.7421 35.9373 32.7586C35.7575 32.7752 35.5846 32.8364 35.4344 32.9368L28.6425 37.4659C28.1755 37.7786 27.6353 37.9647 27.0747 38.0059C26.5142 38.0472 25.9525 37.9421 25.4447 37.7011C20.6156 35.3608 16.7087 31.4715 14.3466 26.653L14.3468 26.6533C14.1044 26.1486 13.9966 25.5897 14.0339 25.031C14.0713 24.4723 14.2524 23.9328 14.5598 23.4648L19.073 16.5688C19.1713 16.419 19.2308 16.2473 19.2465 16.0688C19.2621 15.8904 19.2333 15.7109 19.1626 15.5464L13.7121 2.82941C13.6295 2.63497 13.492 2.46885 13.3164 2.35143C13.1408 2.23401 12.9348 2.1704 12.7236 2.1684C12.6804 2.16837 12.6373 2.17111 12.5946 2.17661C9.71498 2.54733 7.06886 3.95369 5.15052 6.13298C3.23217 8.31226 2.17282 11.1154 2.17036 14.0187C2.17036 33.765 18.235 49.8296 37.9813 49.8296C40.8846 49.8272 43.6878 48.7678 45.8671 46.8494C48.0464 44.931 49.4527 42.2848 49.8234 39.4052C49.8498 39.1734 49.8005 38.9394 49.6829 38.738C49.5652 38.5366 49.3855 38.3787 49.1706 38.2879Z" fill="#CB6A84"/>
</svg>
