<svg aria-hidden="true" style="position: absolute; width: 0; height: 0; overflow: hidden;" version="1.1" xmlns="http://www.w3.org/2000/svg" xmlns:xlink="http://www.w3.org/1999/xlink">
<defs>
<symbol id="icon-burger" viewBox="0 0 48 32">
<path d="M0 0h48v5.333h-48v-5.333zM0 13.333h48v5.333h-48v-5.333zM0 26.667h48v5.333h-48v-5.333z"></path>
</symbol>
<symbol id="icon-phone" viewBox="0 0 32 32">
<path d="M19.959 1.776c0.023-0.085 0.062-0.164 0.115-0.234s0.12-0.128 0.196-0.172c0.076-0.044 0.16-0.072 0.247-0.084s0.175-0.006 0.26 0.017c2.377 0.639 4.545 1.892 6.286 3.633s2.994 3.909 3.633 6.286c0.023 0.085 0.028 0.173 0.017 0.26s-0.040 0.171-0.084 0.247c-0.044 0.076-0.102 0.142-0.172 0.196s-0.149 0.092-0.234 0.115c-0.085 0.023-0.173 0.028-0.26 0.017s-0.171-0.040-0.247-0.084c-0.076-0.044-0.142-0.102-0.196-0.172s-0.093-0.149-0.115-0.234c-0.578-2.151-1.712-4.112-3.287-5.687s-3.536-2.708-5.687-3.287c-0.171-0.046-0.317-0.158-0.406-0.311s-0.113-0.336-0.067-0.507zM19.049 7.756c1.245 0.335 2.381 0.991 3.293 1.903s1.568 2.047 1.903 3.293c0.023 0.085 0.062 0.164 0.115 0.234s0.12 0.128 0.196 0.172c0.076 0.044 0.16 0.072 0.247 0.084s0.175 0.006 0.26-0.017c0.085-0.023 0.164-0.062 0.234-0.115s0.128-0.12 0.172-0.196c0.044-0.076 0.072-0.16 0.084-0.247s0.006-0.175-0.017-0.26c-0.396-1.472-1.171-2.814-2.249-3.892s-2.42-1.853-3.892-2.249c-0.085-0.023-0.173-0.028-0.26-0.017s-0.171 0.040-0.247 0.084c-0.076 0.044-0.142 0.102-0.196 0.172s-0.092 0.149-0.115 0.234c-0.023 0.085-0.028 0.173-0.017 0.26s0.040 0.171 0.084 0.247c0.044 0.076 0.102 0.142 0.172 0.196s0.149 0.093 0.234 0.115v0zM31.986 24.417c-0.269 2.095-1.292 4.019-2.877 5.415s-3.624 2.166-5.735 2.168c-12.888 0-23.373-10.485-23.373-23.373 0.002-2.112 0.773-4.151 2.168-5.735s3.32-2.608 5.415-2.877c0.43-0.052 0.866 0.037 1.241 0.254s0.671 0.549 0.842 0.947l3.354 7.826c0.131 0.304 0.184 0.635 0.155 0.964s-0.139 0.646-0.32 0.922l-2.777 4.244c-0.063 0.094-0.1 0.203-0.109 0.316s0.012 0.226 0.060 0.329h0c1.322 2.696 3.508 4.873 6.21 6.182 0.103 0.048 0.217 0.068 0.33 0.059s0.222-0.048 0.316-0.112l4.18-2.787c0.277-0.185 0.596-0.299 0.928-0.329s0.666 0.023 0.972 0.154l7.82 3.351c0.398 0.171 0.73 0.466 0.947 0.842s0.305 0.811 0.254 1.241zM30.259 23.562l-7.819-3.351c-0.102-0.044-0.214-0.062-0.324-0.051s-0.217 0.048-0.309 0.11l-4.18 2.787c-0.287 0.192-0.62 0.307-0.965 0.332s-0.691-0.039-1.003-0.188c-2.972-1.44-5.376-3.834-6.83-6.799l0 0c-0.149-0.311-0.216-0.655-0.193-0.998s0.134-0.676 0.324-0.964l2.777-4.244c0.060-0.092 0.097-0.198 0.107-0.308s-0.008-0.22-0.052-0.321l-3.354-7.826c-0.051-0.12-0.135-0.222-0.243-0.294s-0.235-0.111-0.365-0.113c-0.027-0-0.053 0.002-0.079 0.005-1.772 0.228-3.4 1.094-4.581 2.435s-1.832 3.066-1.834 4.853c0 12.152 9.886 22.037 22.038 22.037 1.787-0.001 3.512-0.653 4.853-1.834s2.207-2.809 2.435-4.581c0.016-0.143-0.014-0.287-0.086-0.411s-0.183-0.221-0.315-0.277z"></path>
</symbol>
<symbol id="icon-question" viewBox="0 0 32 32">
<path d="M16 0c-3.164 0-6.258 0.938-8.889 2.696s-4.682 4.257-5.893 7.181c-1.211 2.924-1.528 6.141-0.91 9.244s2.141 5.955 4.379 8.192 5.089 3.761 8.192 4.379c3.104 0.617 6.321 0.3 9.244-0.91s5.422-3.262 7.181-5.893c1.758-2.631 2.696-5.725 2.696-8.889 0-2.101-0.414-4.182-1.218-6.123s-1.983-3.705-3.468-5.191c-1.486-1.486-3.25-2.664-5.191-3.468s-4.022-1.218-6.123-1.218zM16 28.8c-2.532 0-5.006-0.751-7.111-2.157s-3.746-3.406-4.714-5.745c-0.969-2.339-1.222-4.912-0.728-7.395s1.713-4.764 3.503-6.554c1.79-1.79 4.071-3.009 6.554-3.503s5.057-0.24 7.396 0.728c2.339 0.969 4.338 2.609 5.744 4.714s2.157 4.58 2.157 7.111c0 3.395-1.349 6.651-3.749 9.051s-5.656 3.749-9.051 3.749z"></path>
<path d="M15.999 6.4c-1.485 0-2.91 0.59-3.96 1.64s-1.64 2.475-1.64 3.96c0 0.424 0.169 0.831 0.469 1.131s0.707 0.469 1.131 0.469 0.831-0.169 1.131-0.469c0.3-0.3 0.469-0.707 0.469-1.131 0-0.475 0.141-0.939 0.404-1.334s0.639-0.702 1.077-0.884c0.438-0.182 0.921-0.229 1.387-0.137s0.893 0.321 1.229 0.657 0.564 0.763 0.657 1.229c0.093 0.466 0.045 0.948-0.137 1.387s-0.489 0.813-0.884 1.077c-0.395 0.264-0.859 0.404-1.333 0.404-0.424 0-0.831 0.169-1.131 0.469s-0.469 0.707-0.469 1.131v3.2c0 0.424 0.169 0.831 0.469 1.131s0.707 0.469 1.131 0.469 0.831-0.169 1.131-0.469c0.3-0.3 0.469-0.707 0.469-1.131v-1.856c1.293-0.378 2.406-1.21 3.134-2.343s1.021-2.492 0.826-3.825c-0.195-1.333-0.865-2.55-1.887-3.428s-2.326-1.357-3.673-1.348z"></path>
<path d="M15.999 25.603c0.884 0 1.6-0.717 1.6-1.601s-0.716-1.601-1.6-1.601-1.6 0.717-1.6 1.601c0 0.884 0.716 1.601 1.6 1.601z"></path>
</symbol>
</defs>
</svg>
