<svg aria-hidden="true" style="position: absolute; width: 0; height: 0; overflow: hidden;" version="1.1" xmlns="http://www.w3.org/2000/svg" xmlns:xlink="http://www.w3.org/1999/xlink">
<defs>

<symbol id="icon-burger" viewBox="0 0 48 32">
<path d="M0 0h48v5.333h-48v-5.333zM0 13.333h48v5.333h-48v-5.333zM0 26.667h48v5.333h-48v-5.333z"></path>
</symbol>

<symbol id="icon-phone" viewBox="0 0 32 32">
<path d="M19.959 1.776c0.023-0.085 0.062-0.164 0.115-0.234s0.12-0.128 0.196-0.172c0.076-0.044 0.16-0.072 0.247-0.084s0.175-0.006 0.26 0.017c2.377 0.639 4.545 1.892 6.286 3.633s2.994 3.909 3.633 6.286c0.023 0.085 0.028 0.173 0.017 0.26s-0.040 0.171-0.084 0.247c-0.044 0.076-0.102 0.142-0.172 0.196s-0.149 0.092-0.234 0.115c-0.085 0.023-0.173 0.028-0.26 0.017s-0.171-0.040-0.247-0.084c-0.076-0.044-0.142-0.102-0.196-0.172s-0.093-0.149-0.115-0.234c-0.578-2.151-1.712-4.112-3.287-5.687s-3.536-2.708-5.687-3.287c-0.171-0.046-0.317-0.158-0.406-0.311s-0.113-0.336-0.067-0.507zM19.049 7.756c1.245 0.335 2.381 0.991 3.293 1.903s1.568 2.047 1.903 3.293c0.023 0.085 0.062 0.164 0.115 0.234s0.12 0.128 0.196 0.172c0.076 0.044 0.16 0.072 0.247 0.084s0.175 0.006 0.26-0.017c0.085-0.023 0.164-0.062 0.234-0.115s0.128-0.12 0.172-0.196c0.044-0.076 0.072-0.16 0.084-0.247s0.006-0.175-0.017-0.26c-0.396-1.472-1.171-2.814-2.249-3.892s-2.42-1.853-3.892-2.249c-0.085-0.023-0.173-0.028-0.26-0.017s-0.171 0.040-0.247 0.084c-0.076 0.044-0.142 0.102-0.196 0.172s-0.092 0.149-0.115 0.234c-0.023 0.085-0.028 0.173-0.017 0.26s0.040 0.171 0.084 0.247c0.044 0.076 0.102 0.142 0.172 0.196s0.149 0.093 0.234 0.115v0zM31.986 24.417c-0.269 2.095-1.292 4.019-2.877 5.415s-3.624 2.166-5.735 2.168c-12.888 0-23.373-10.485-23.373-23.373 0.002-2.112 0.773-4.151 2.168-5.735s3.32-2.608 5.415-2.877c0.43-0.052 0.866 0.037 1.241 0.254s0.671 0.549 0.842 0.947l3.354 7.826c0.131 0.304 0.184 0.635 0.155 0.964s-0.139 0.646-0.32 0.922l-2.777 4.244c-0.063 0.094-0.1 0.203-0.109 0.316s0.012 0.226 0.060 0.329h0c1.322 2.696 3.508 4.873 6.21 6.182 0.103 0.048 0.217 0.068 0.33 0.059s0.222-0.048 0.316-0.112l4.18-2.787c0.277-0.185 0.596-0.299 0.928-0.329s0.666 0.023 0.972 0.154l7.82 3.351c0.398 0.171 0.73 0.466 0.947 0.842s0.305 0.811 0.254 1.241zM30.259 23.562l-7.819-3.351c-0.102-0.044-0.214-0.062-0.324-0.051s-0.217 0.048-0.309 0.11l-4.18 2.787c-0.287 0.192-0.62 0.307-0.965 0.332s-0.691-0.039-1.003-0.188c-2.972-1.44-5.376-3.834-6.83-6.799l0 0c-0.149-0.311-0.216-0.655-0.193-0.998s0.134-0.676 0.324-0.964l2.777-4.244c0.060-0.092 0.097-0.198 0.107-0.308s-0.008-0.22-0.052-0.321l-3.354-7.826c-0.051-0.12-0.135-0.222-0.243-0.294s-0.235-0.111-0.365-0.113c-0.027-0-0.053 0.002-0.079 0.005-1.772 0.228-3.4 1.094-4.581 2.435s-1.832 3.066-1.834 4.853c0 12.152 9.886 22.037 22.038 22.037 1.787-0.001 3.512-0.653 4.853-1.834s2.207-2.809 2.435-4.581c0.016-0.143-0.014-0.287-0.086-0.411s-0.183-0.221-0.315-0.277z"></path>
</symbol>

<symbol id="icon-question" viewBox="0 0 32 32">
<path d="M16 0c-3.164 0-6.258 0.938-8.889 2.696s-4.682 4.257-5.893 7.181c-1.211 2.924-1.528 6.141-0.91 9.244s2.141 5.955 4.379 8.192 5.089 3.761 8.192 4.379c3.104 0.617 6.321 0.3 9.244-0.91s5.422-3.262 7.181-5.893c1.758-2.631 2.696-5.725 2.696-8.889 0-2.101-0.414-4.182-1.218-6.123s-1.983-3.705-3.468-5.191c-1.486-1.486-3.25-2.664-5.191-3.468s-4.022-1.218-6.123-1.218zM16 28.8c-2.532 0-5.006-0.751-7.111-2.157s-3.746-3.406-4.714-5.745c-0.969-2.339-1.222-4.912-0.728-7.395s1.713-4.764 3.503-6.554c1.79-1.79 4.071-3.009 6.554-3.503s5.057-0.24 7.396 0.728c2.339 0.969 4.338 2.609 5.744 4.714s2.157 4.58 2.157 7.111c0 3.395-1.349 6.651-3.749 9.051s-5.656 3.749-9.051 3.749z"></path>
<path d="M15.999 6.4c-1.485 0-2.91 0.59-3.96 1.64s-1.64 2.475-1.64 3.96c0 0.424 0.169 0.831 0.469 1.131s0.707 0.469 1.131 0.469 0.831-0.169 1.131-0.469c0.3-0.3 0.469-0.707 0.469-1.131 0-0.475 0.141-0.939 0.404-1.334s0.639-0.702 1.077-0.884c0.438-0.182 0.921-0.229 1.387-0.137s0.893 0.321 1.229 0.657 0.564 0.763 0.657 1.229c0.093 0.466 0.045 0.948-0.137 1.387s-0.489 0.813-0.884 1.077c-0.395 0.264-0.859 0.404-1.333 0.404-0.424 0-0.831 0.169-1.131 0.469s-0.469 0.707-0.469 1.131v3.2c0 0.424 0.169 0.831 0.469 1.131s0.707 0.469 1.131 0.469 0.831-0.169 1.131-0.469c0.3-0.3 0.469-0.707 0.469-1.131v-1.856c1.293-0.378 2.406-1.21 3.134-2.343s1.021-2.492 0.826-3.825c-0.195-1.333-0.865-2.55-1.887-3.428s-2.326-1.357-3.673-1.348z"></path>
<path d="M15.999 25.603c0.884 0 1.6-0.717 1.6-1.601s-0.716-1.601-1.6-1.601-1.6 0.717-1.6 1.601c0 0.884 0.716 1.601 1.6 1.601z"></path>
</symbol>

<symbol id="icon-location" viewBox="0 0 32 32">
<path d="M16.002 17.746c3.309 0 6-2.692 6-6s-2.691-6-6-6c-3.309 0-6 2.691-6 6s2.691 6 6 6zM16.002 6.746c2.758 0 5 2.242 5 5s-2.242 5-5 5c-2.758 0-5-2.242-5-5s2.242-5 5-5zM16 0c-6.618 0-12 5.316-12 12.001 0 7 6.001 14.161 10.376 19.194 0.016 0.020 0.718 0.805 1.586 0.805 0.002 0 0.073 0 0.077 0 0.867 0 1.57-0.785 1.586-0.805 4.377-5.033 10.377-12.193 10.377-19.194 0-6.685-5.383-12.001-12.002-12.001zM16.117 29.883c-0.021 0.020-0.082 0.064-0.135 0.098-0.010-0.027-0.084-0.086-0.129-0.133-3.665-4.217-9.853-11.334-9.853-17.847 0-5.514 4.487-10.001 10-10.001 5.516 0 10.002 4.487 10.002 10.002 0 6.512-6.188 13.629-9.885 17.881z"></path>
</symbol>

<symbol id="icon-like" viewBox="0 0 32 32">
<path d="M29.164 10.472c-1.25-0.328-4.189-0.324-8.488-0.438 0.203-0.938 0.25-1.784 0.25-3.286 0-3.588-2.614-6.748-4.926-6.748-1.633 0-2.979 1.335-3 2.977-0.022 2.014-0.645 5.492-4 7.256-0.246 0.13-0.95 0.477-1.053 0.522l0.053 0.045c-0.525-0.453-1.253-0.8-2-0.8h-3c-1.654 0-3 1.346-3 3v16c0 1.654 1.346 3 3 3h3c1.19 0 2.186-0.719 2.668-1.727 0.012 0.004 0.033 0.010 0.047 0.012 0.066 0.018 0.144 0.037 0.239 0.062 0.018 0.005 0.027 0.007 0.046 0.012 0.576 0.143 1.685 0.408 4.055 0.953 0.508 0.116 3.192 0.688 5.972 0.688h5.467c1.666 0 2.867-0.641 3.582-1.928 0.010-0.020 0.24-0.469 0.428-1.076 0.141-0.457 0.193-1.104 0.023-1.76 1.074-0.738 1.42-1.854 1.645-2.58 0.377-1.191 0.264-2.086 0.002-2.727 0.604-0.57 1.119-1.439 1.336-2.766 0.135-0.822-0.010-1.668-0.389-2.372 0.566-0.636 0.824-1.436 0.854-2.176l0.012-0.209c0.007-0.131 0.013-0.212 0.013-0.5 0-1.263-0.875-2.874-2.836-3.434zM7 29c0 0.553-0.447 1-1 1h-3c-0.553 0-1-0.447-1-1v-16c0-0.553 0.447-1 1-1h3c0.553 0 1 0.447 1 1v16zM29.977 14.535c-0.020 0.494-0.227 1.465-1.977 1.465-1.5 0-2 0-2 0-0.277 0-0.5 0.224-0.5 0.5s0.223 0.5 0.5 0.5c0 0 0.438 0 1.938 0s1.697 1.244 1.6 1.844c-0.124 0.746-0.474 2.156-2.163 2.156-1.687 0-2.375 0-2.375 0-0.277 0-0.5 0.223-0.5 0.5 0 0.275 0.223 0.5 0.5 0.5 0 0 1.188 0 1.969 0 1.688 0 1.539 1.287 1.297 2.055-0.319 1.009-0.514 1.945-2.641 1.945-0.719 0-1.631 0-1.631 0-0.277 0-0.5 0.223-0.5 0.5 0 0.275 0.223 0.5 0.5 0.5 0 0 0.693 0 1.568 0 1.094 0 1.145 1.035 1.031 1.406-0.125 0.406-0.273 0.707-0.279 0.721-0.302 0.545-0.789 0.873-1.82 0.873h-5.467c-2.746 0-5.47-0.623-5.54-0.639-4.154-0.957-4.373-1.031-4.634-1.105 0 0-0.846-0.143-0.846-0.881l-0.007-13.812c0-0.469 0.299-0.893 0.794-1.042 0.062-0.024 0.146-0.050 0.206-0.075 4.568-1.892 5.959-6.040 6-9.446 0.006-0.479 0.375-1 1-1 1.057 0 2.926 2.122 2.926 4.748 0 2.371-0.096 2.781-0.926 5.252 10 0 9.93 0.144 10.812 0.375 1.094 0.313 1.188 1.219 1.188 1.531 0 0.343-0.010 0.293-0.023 0.629zM4.5 26c-0.828 0-1.5 0.672-1.5 1.5s0.672 1.5 1.5 1.5 1.5-0.672 1.5-1.5-0.672-1.5-1.5-1.5zM4.5 28c-0.275 0-0.5-0.225-0.5-0.5s0.225-0.5 0.5-0.5 0.5 0.225 0.5 0.5-0.225 0.5-0.5 0.5z"></path>
</symbol>

<symbol id="icon-cart" viewBox="0 0 32 32">
<path d="M31.914 5.4l-2.914 11.6c0 0.139-0.028 0.27-0.078 0.389-0.102 0.24-0.293 0.432-0.532 0.533-0.12 0.051-0.252 0.078-0.39 0.078h-19l0.8 4h17.2c0.553 0 1 0.447 1 1s-0.447 1-1 1h-18c-0.553 0-1-0.447-1-1l-3.8-19h-3.2c-0.552 0-1-0.448-1-1s0.448-1 1-1h4c0.553 0 1 0.448 1 1l0.2 1h24.8c0.553 0 1 0.448 1 1 0 0.143-0.032 0.277-0.086 0.4zM8.6 16h3.4v-10h-5.4l2 10zM18 6h-5v10h5v-10zM24 6h-5v10h5v-10zM25 6v10h2.253l2.533-10h-4.786zM11 26c1.657 0 3 1.344 3 3s-1.343 3-3 3-3-1.344-3-3 1.343-3 3-3zM11 30c0.553 0 1-0.447 1-1s-0.447-1-1-1-1 0.447-1 1 0.447 1 1 1zM25 26c1.657 0 3 1.344 3 3s-1.343 3-3 3-3-1.344-3-3 1.343-3 3-3zM25 30c0.553 0 1-0.447 1-1s-0.447-1-1-1-1 0.447-1 1 0.447 1 1 1z"></path>
</symbol>

<symbol id="icon-alarm" viewBox="0 0 32 32">
<path d="M16 4c-7.732 0-14 6.268-14 14s6.268 14 14 14 14-6.268 14-14-6.268-14-14-14zM16 29.25c-6.213 0-11.25-5.037-11.25-11.25s5.037-11.25 11.25-11.25c6.213 0 11.25 5.037 11.25 11.25s-5.037 11.25-11.25 11.25zM29.212 8.974c0.501-0.877 0.788-1.892 0.788-2.974 0-3.314-2.686-6-6-6-1.932 0-3.65 0.913-4.747 2.331 4.121 0.851 7.663 3.287 9.96 6.643v0zM12.748 2.331c-1.097-1.418-2.816-2.331-4.748-2.331-3.314 0-6 2.686-6 6 0 1.082 0.287 2.098 0.788 2.974 2.297-3.356 5.838-5.792 9.96-6.643z"></path>
<path d="M16 18v-8h-2v10h8v-2z"></path>
</symbol>

<symbol id="icon-arrow2" viewBox="0 0 104 32">
<path fill="#fbf2e4" style="fill: var(--color1, #fbf2e4)" d="M0 0h88.14l8.84 9.067 7.020 6.933-7.020 7.2-8.84 8.8h-88.14l16.38-16-16.38-16z"></path>
</symbol>

<symbol id="icon-arrow1" viewBox="0 0 104 32">
<path fill="#fee9c8" style="fill: var(--color2, #fee9c8)" d="M0 0h88.14l8.84 9.067 7.020 6.933-7.020 7.2-8.84 8.8h-88.14l16.38-16-16.38-16z"></path>
</symbol>

<symbol id="icon-wide-arrow2" viewBox="0 0 77 32">
<path fill="#fbf2e4" style="fill: var(--color1, #fbf2e4)" d="M77.091 0v27.12l-21.843 2.72-16.703 2.16-17.345-2.16-21.2-2.72v-27.12l38.545 5.040 38.545-5.040z"></path>
</symbol>

<symbol id="icon-wide-arrow1" viewBox="0 0 77 32">
<path fill="#fee9c8" style="fill: var(--color2, #fee9c8)" d="M77.091 0v27.12l-21.843 2.72-16.703 2.16-17.345-2.16-21.2-2.72v-27.12l38.545 5.040 38.545-5.040z"></path>
</symbol>

<symbol id="icon-bird-arrow" viewBox="0 0 53 32">
<path fill="#cb6a84" style="fill: var(--color1, #cb6a84)" opacity="0.7" d="M8.077 1.405l18.3 18.633 18.3-18.633c1.839-1.873 4.811-1.873 6.65 0s1.839 4.898 0 6.771l-21.648 22.043c-1.839 1.873-4.811 1.873-6.65 0l-21.648-22.043c-1.839-1.873-1.839-4.898 0-6.771 1.839-1.825 4.858-1.873 6.697 0z"></path>
</symbol>

<symbol id="icon-finish" viewBox="0 0 28 32">
<path fill="#cb6a84" style="fill: var(--color3, #cb6a84)" d="M0 0h1.377v32h-1.377v-32z"></path>
<path fill="#cb6a84" style="fill: var(--color3, #cb6a84)" d="M26.623 0h1.377v32h-1.377v-32z"></path>
<path fill="#dbeffe" style="fill: var(--color4, #dbeffe)" d="M0 1.454c0 0 6.999 1.455 13.998 1.455s13.998-1.455 13.998-1.455v8.727c0 0-6.999 1.455-13.998 1.455s-13.998-1.455-13.998-1.455v-8.727z"></path>
<path fill="#15100f" style="fill: var(--color5, #15100f)" d="M8.376 6.333h0.491c0.23 0 0.435 0.052 0.614 0.155s0.319 0.246 0.421 0.43c0.102 0.184 0.153 0.397 0.153 0.639s-0.051 0.456-0.153 0.641c-0.102 0.185-0.242 0.329-0.421 0.433s-0.383 0.156-0.614 0.156h-0.491c-0.23 0-0.435-0.052-0.614-0.155s-0.319-0.246-0.421-0.43c-0.102-0.184-0.153-0.397-0.153-0.639s0.051-0.456 0.153-0.641c0.102-0.185 0.242-0.329 0.421-0.433s0.383-0.156 0.614-0.156zM8.376 6.667c-0.176 0-0.324 0.037-0.445 0.111-0.12 0.074-0.212 0.178-0.274 0.312-0.062 0.134-0.092 0.292-0.092 0.474 0 0.18 0.031 0.336 0.092 0.47s0.154 0.237 0.274 0.311c0.121 0.074 0.27 0.111 0.445 0.111h0.491c0.176 0 0.324-0.037 0.444-0.111s0.213-0.178 0.274-0.312c0.063-0.134 0.094-0.292 0.094-0.474 0-0.18-0.031-0.336-0.094-0.47s-0.153-0.237-0.274-0.311c-0.12-0.074-0.268-0.111-0.444-0.111h-0.491zM8.812 5.909v3.285h-0.376v-3.285h0.376zM11.486 5.964v3.103h-0.376v-3.103h0.376zM12.667 9.067v-3.103h0.376v1.382h1.655v-1.382h0.376v3.103h-0.376v-1.388h-1.655v1.388h-0.376zM16.627 5.964v3.103h-0.376v-3.103h0.376zM17.807 5.964h0.376v2.758h1.091v-2.758h0.376v2.758h1.091v-2.758h0.376v3.103h-3.309v-3.103z"></path>
</symbol>

<symbol id="icon-start" viewBox="0 0 28 32">
<path fill="#cb6a84" style="fill: var(--color3, #cb6a84)" d="M0 0h1.377v32h-1.377v-32z"></path>
<path fill="#cb6a84" style="fill: var(--color3, #cb6a84)" d="M26.623 0h1.377v32h-1.377v-32z"></path>
<path fill="#dbeffe" style="fill: var(--color4, #dbeffe)" d="M0 1.454c0 0 6.999 1.455 13.998 1.455s13.998-1.455 13.998-1.455v8.727c0 0-6.999 1.455-13.998 1.455s-13.998-1.455-13.998-1.455v-8.727z"></path>
<path fill="#15100f" style="fill: var(--color5, #15100f)" d="M9.806 6.933h-0.376c-0.022-0.108-0.061-0.203-0.117-0.285-0.055-0.082-0.121-0.151-0.2-0.206-0.078-0.057-0.164-0.099-0.259-0.127s-0.194-0.042-0.297-0.042c-0.188 0-0.358 0.048-0.511 0.142-0.152 0.095-0.272 0.235-0.362 0.42s-0.133 0.412-0.133 0.68 0.044 0.495 0.133 0.68c0.090 0.185 0.211 0.325 0.362 0.42 0.153 0.095 0.323 0.142 0.511 0.142 0.103 0 0.202-0.014 0.297-0.042s0.181-0.070 0.259-0.126c0.079-0.057 0.145-0.126 0.2-0.208 0.056-0.083 0.094-0.178 0.117-0.285h0.376c-0.028 0.159-0.080 0.3-0.155 0.426s-0.168 0.232-0.279 0.32c-0.111 0.087-0.236 0.153-0.374 0.198-0.137 0.045-0.284 0.068-0.441 0.068-0.265 0-0.5-0.065-0.706-0.194s-0.368-0.313-0.486-0.552c-0.118-0.238-0.177-0.521-0.177-0.848s0.059-0.61 0.177-0.848c0.118-0.238 0.28-0.422 0.486-0.552s0.441-0.194 0.706-0.194c0.157 0 0.304 0.023 0.441 0.068 0.138 0.045 0.263 0.112 0.374 0.2 0.111 0.087 0.204 0.193 0.279 0.318s0.126 0.266 0.155 0.426zM10.67 6.297v-0.333h2.327v0.333h-0.976v2.77h-0.376v-2.77h-0.976zM13.769 9.067h-0.394l1.139-3.103h0.388l1.139 3.103h-0.394l-0.927-2.612h-0.024l-0.927 2.612zM13.914 7.855h1.588v0.333h-1.588v-0.333zM16.952 9.067v-3.103h1.048c0.243 0 0.442 0.044 0.597 0.132 0.156 0.087 0.271 0.205 0.345 0.353s0.112 0.314 0.112 0.497c0 0.183-0.037 0.349-0.112 0.498s-0.188 0.269-0.342 0.358c-0.155 0.088-0.353 0.132-0.594 0.132h-0.752v-0.333h0.739c0.167 0 0.3-0.029 0.401-0.086s0.174-0.135 0.22-0.233c0.046-0.099 0.070-0.211 0.070-0.335s-0.023-0.235-0.070-0.333c-0.045-0.098-0.119-0.175-0.221-0.23-0.102-0.057-0.237-0.085-0.406-0.085h-0.661v2.77h-0.376zM19.917 6.297v-0.333h2.327v0.333h-0.976v2.77h-0.376v-2.77h-0.976z"></path>
</symbol>

<symbol id="icon-facebook" viewBox="0 0 32 32">
<path fill="#1877f2" d="M0.872 4.368c-0.872 1.711-0.872 3.952-0.872 8.432v6.4c0 4.48 0 6.721 0.872 8.432 0.767 1.505 1.991 2.729 3.496 3.496 1.711 0.872 3.951 0.872 8.432 0.872h3.063v-12.13h-4.538v-5.109h4.538v-3.894c0-4.43 2.668-6.876 6.75-6.876 1.955 0 4.001 0.345 4.001 0.345v4.35h-2.254c-2.22 0-2.913 1.362-2.913 2.76v3.315h4.957l-0.792 5.109h-4.164v12.125c3.036-0.024 4.786-0.154 6.184-0.867 1.505-0.767 2.729-1.991 3.496-3.496 0.872-1.711 0.872-3.951 0.872-8.432v-6.4c0-4.48 0-6.721-0.872-8.432-0.767-1.505-1.991-2.729-3.496-3.496-1.711-0.872-3.951-0.872-8.432-0.872h-6.4c-4.48 0-6.721 0-8.432 0.872-1.505 0.767-2.729 1.991-3.496 3.496z"></path>
</symbol>

<symbol id="icon-instagram" viewBox="0 0 32 32">
<path d="M16 2.881c4.275 0 4.781 0.019 6.463 0.094 1.562 0.069 2.406 0.331 2.969 0.55 0.744 0.288 1.281 0.638 1.837 1.194 0.563 0.563 0.906 1.094 1.194 1.838 0.219 0.562 0.481 1.412 0.55 2.969 0.075 1.687 0.094 2.194 0.094 6.463 0 4.275-0.019 4.781-0.094 6.462-0.069 1.563-0.331 2.406-0.55 2.969-0.288 0.744-0.638 1.281-1.194 1.838-0.562 0.562-1.094 0.906-1.837 1.194-0.563 0.219-1.413 0.481-2.969 0.55-1.688 0.075-2.194 0.094-6.463 0.094-4.275 0-4.781-0.019-6.462-0.094-1.563-0.069-2.406-0.331-2.969-0.55-0.744-0.287-1.281-0.637-1.837-1.194-0.563-0.563-0.906-1.094-1.194-1.838-0.219-0.562-0.481-1.412-0.55-2.969-0.075-1.687-0.094-2.194-0.094-6.462 0-4.275 0.019-4.781 0.094-6.463 0.069-1.563 0.331-2.406 0.55-2.969 0.288-0.744 0.638-1.281 1.194-1.838 0.563-0.563 1.094-0.906 1.838-1.194 0.563-0.219 1.412-0.481 2.969-0.55 1.681-0.075 2.187-0.094 6.462-0.094zM16 0c-4.344 0-4.887 0.019-6.594 0.094-1.7 0.075-2.869 0.35-3.881 0.744-1.056 0.412-1.95 0.956-2.837 1.85-0.894 0.888-1.438 1.781-1.85 2.831-0.394 1.019-0.669 2.181-0.744 3.881-0.075 1.712-0.094 2.256-0.094 6.6s0.019 4.887 0.094 6.594c0.075 1.7 0.35 2.869 0.744 3.881 0.413 1.056 0.956 1.95 1.85 2.838 0.887 0.887 1.781 1.437 2.831 1.844 1.019 0.394 2.181 0.669 3.881 0.744 1.706 0.075 2.25 0.094 6.594 0.094s4.888-0.019 6.594-0.094c1.7-0.075 2.869-0.35 3.881-0.744 1.050-0.406 1.944-0.956 2.831-1.844s1.438-1.781 1.844-2.831c0.394-1.019 0.669-2.181 0.744-3.881 0.075-1.706 0.094-2.25 0.094-6.594s-0.019-4.888-0.094-6.594c-0.075-1.7-0.35-2.869-0.744-3.881-0.394-1.063-0.937-1.956-1.831-2.844-0.888-0.887-1.781-1.438-2.831-1.844-1.019-0.394-2.181-0.669-3.881-0.744-1.712-0.081-2.256-0.1-6.6-0.1z"></path>
<path d="M16 7.781c-4.537 0-8.219 3.681-8.219 8.219s3.681 8.219 8.219 8.219c4.537 0 8.219-3.681 8.219-8.219s-3.681-8.219-8.219-8.219zM16 21.331c-2.944 0-5.331-2.388-5.331-5.331s2.388-5.331 5.331-5.331c2.944 0 5.331 2.388 5.331 5.331s-2.388 5.331-5.331 5.331z"></path>
<path d="M26.462 7.456c0 1.062-0.862 1.919-1.919 1.919-1.062 0-1.919-0.862-1.919-1.919 0-1.063 0.863-1.919 1.919-1.919s1.919 0.862 1.919 1.919z"></path>
</symbol>

</defs>
</svg>
